<svg width="40" height="40" viewBox="0 0 40 40" fill="none" xmlns="http://www.w3.org/2000/svg">
<path d="M18.75 7.55502C16.1385 5.8823 13.1013 4.99542 10 5.00002C8.15498 4.99813 6.32316 5.31095 4.58333 5.92502C4.33965 6.01117 4.12867 6.17075 3.97943 6.38177C3.83019 6.59279 3.75004 6.84489 3.75 7.10335V30.8533C3.75003 31.0533 3.79803 31.2503 3.88997 31.4279C3.98191 31.6055 4.11511 31.7584 4.27838 31.8738C4.44166 31.9893 4.63025 32.0639 4.82831 32.0913C5.02638 32.1188 5.22814 32.0983 5.41667 32.0317C6.88889 31.5124 8.43889 31.2481 10 31.25C13.325 31.25 16.3717 32.4284 18.75 34.3934V7.55502ZM21.25 34.3934C23.7107 32.3569 26.806 31.245 30 31.25C31.61 31.25 33.15 31.5267 34.5833 32.0334C34.772 32.1001 34.9739 32.1205 35.1721 32.0929C35.3703 32.0654 35.559 31.9907 35.7223 31.875C35.8856 31.7594 36.0188 31.6063 36.1106 31.4285C36.2024 31.2507 36.2502 31.0535 36.25 30.8533V7.10335C36.25 6.84489 36.1698 6.59279 36.0206 6.38177C35.8713 6.17075 35.6603 6.01117 35.4167 5.92502C33.6768 5.31095 31.845 4.99813 30 5.00002C26.8987 4.99542 23.8615 5.8823 21.25 7.55502V34.3934Z" fill="#16191E"/>
</svg>
