<svg width="18" height="19" viewBox="0 0 18 19" fill="none" xmlns="http://www.w3.org/2000/svg">
<path d="M5.0625 2.75V4.4375M12.9375 2.75V4.4375M2.25 14.5625V6.125C2.25 5.67745 2.42779 5.24823 2.74426 4.93176C3.06072 4.61529 3.48995 4.4375 3.9375 4.4375H14.0625C14.5101 4.4375 14.9393 4.61529 15.2557 4.93176C15.5722 5.24823 15.75 5.67745 15.75 6.125V14.5625M2.25 14.5625C2.25 15.0101 2.42779 15.4393 2.74426 15.7557C3.06072 16.0722 3.48995 16.25 3.9375 16.25H14.0625C14.5101 16.25 14.9393 16.0722 15.2557 15.7557C15.5722 15.4393 15.75 15.0101 15.75 14.5625M2.25 14.5625V8.9375C2.25 8.48995 2.42779 8.06073 2.74426 7.74426C3.06072 7.42779 3.48995 7.25 3.9375 7.25H14.0625C14.5101 7.25 14.9393 7.42779 15.2557 7.74426C15.5722 8.06073 15.75 8.48995 15.75 8.9375V14.5625" stroke="#E7C9A5" stroke-width="1.5" stroke-linecap="round" stroke-linejoin="round"/>
</svg>
