<svg width="22" height="22" viewBox="0 0 22 22" fill="none" xmlns="http://www.w3.org/2000/svg">
<path d="M10.7087 17.9304L10.703 17.9281L10.6849 17.9187C10.5793 17.8637 10.4746 17.8071 10.3707 17.7492C9.12169 17.0457 7.95448 16.2192 6.88841 15.2836C5.00041 13.6136 3 11.1356 3 8.08349C3 5.8061 5.02174 4.00006 7.46195 4.00006C8.14031 3.99691 8.81069 4.13877 9.42324 4.41509C10.0358 4.69142 10.5747 5.09509 11 5.5961C11.4254 5.09499 11.9644 4.69125 12.5771 4.41492C13.1898 4.13859 13.8604 3.99679 14.5389 4.00006C16.9783 4.00006 19 5.8061 19 8.08349C19 11.1363 16.9996 13.6144 15.1116 15.2828C14.0455 16.2185 12.8783 17.0449 11.6293 17.7484C11.5255 17.8066 11.4207 17.8634 11.3151 17.9187L11.297 17.9281L11.2913 17.9312L11.2888 17.932C11.1998 17.9766 11.1007 18 11 18C10.8993 18 10.8002 17.9766 10.7112 17.932L10.7087 17.9304Z" fill="#E7C9A5"/>
</svg>
