<svg width="40" height="40" viewBox="0 0 40 40" fill="none" xmlns="http://www.w3.org/2000/svg">
<path d="M13.75 15V8.75C13.75 7.75544 14.1451 6.80161 14.8483 6.09835C15.5516 5.39509 16.5054 5 17.5 5H27.5C28.4946 5 29.4484 5.39509 30.1516 6.09835C30.8549 6.80161 31.25 7.75544 31.25 8.75V31.25C31.25 32.2446 30.8549 33.1984 30.1516 33.9016C29.4484 34.6049 28.4946 35 27.5 35H17.5C16.5054 35 15.5516 34.6049 14.8483 33.9016C14.1451 33.1984 13.75 32.2446 13.75 31.25V25M8.75 25L3.75 20M3.75 20L8.75 15M3.75 20H25" stroke="#EF4444" stroke-width="3" stroke-linecap="round" stroke-linejoin="round"/>
</svg>
