<svg width="22" height="22" viewBox="0 0 22 22" fill="none" xmlns="http://www.w3.org/2000/svg">
<path d="M10.5232 3.20745C10.5619 3.11288 10.628 3.03198 10.7128 2.97504C10.7977 2.9181 10.8976 2.8877 10.9998 2.8877C11.102 2.8877 11.2019 2.9181 11.2868 2.97504C11.3717 3.03198 11.4377 3.11288 11.4765 3.20745L13.4244 7.89253C13.4609 7.9802 13.5208 8.05611 13.5976 8.1119C13.6745 8.1677 13.7652 8.20122 13.8598 8.20878L18.918 8.61395C19.3754 8.65062 19.5606 9.2217 19.2122 9.51962L15.3586 12.8215C15.2866 12.883 15.2329 12.9633 15.2035 13.0533C15.1741 13.1434 15.17 13.2398 15.1917 13.332L16.3697 18.2683C16.3933 18.3673 16.3871 18.4711 16.3518 18.5667C16.3165 18.6622 16.2537 18.7451 16.1713 18.8049C16.0889 18.8647 15.9907 18.8988 15.8889 18.9028C15.7872 18.9068 15.6865 18.8806 15.5997 18.8275L11.2684 16.1829C11.1875 16.1335 11.0946 16.1073 10.9998 16.1073C10.9051 16.1073 10.8121 16.1335 10.7312 16.1829L6.39999 18.8284C6.31314 18.8815 6.21249 18.9078 6.11074 18.9037C6.009 18.8997 5.91072 18.8657 5.82833 18.8058C5.74594 18.746 5.68312 18.6631 5.64782 18.5676C5.61252 18.4721 5.60632 18.3682 5.62999 18.2692L6.80791 13.332C6.82975 13.2398 6.82574 13.1434 6.7963 13.0533C6.76687 12.9632 6.71316 12.883 6.64107 12.8215L2.78741 9.51962C2.70981 9.45347 2.65358 9.36577 2.62585 9.26764C2.59813 9.16951 2.60015 9.06536 2.63166 8.96838C2.66317 8.8714 2.72275 8.78595 2.80285 8.72286C2.88296 8.65976 2.97999 8.62186 3.08166 8.61395L8.13983 8.20878C8.23447 8.20122 8.32519 8.1677 8.40202 8.1119C8.47884 8.05611 8.53878 7.9802 8.57524 7.89253L10.5232 3.20745Z" stroke="#9298A1" stroke-width="1.5" stroke-linecap="round" stroke-linejoin="round"/>
</svg>
