<svg width="40" height="40" viewBox="0 0 40 40" fill="none" xmlns="http://www.w3.org/2000/svg">
<path d="M26.2503 10C26.2503 11.6576 25.5918 13.2473 24.4197 14.4194C23.2476 15.5915 21.6579 16.25 20.0003 16.25C18.3427 16.25 16.753 15.5915 15.5809 14.4194C14.4088 13.2473 13.7503 11.6576 13.7503 10C13.7503 8.3424 14.4088 6.75269 15.5809 5.58058C16.753 4.40848 18.3427 3.75 20.0003 3.75C21.6579 3.75 23.2476 4.40848 24.4197 5.58058C25.5918 6.75269 26.2503 8.3424 26.2503 10ZM7.50195 33.53C7.55551 30.2506 8.89585 27.1236 11.2339 24.8234C13.572 22.5232 16.7204 21.2341 20.0003 21.2341C23.2801 21.2341 26.4286 22.5232 28.7667 24.8234C31.1047 27.1236 32.4451 30.2506 32.4986 33.53C28.5776 35.3279 24.3139 36.2559 20.0003 36.25C15.5403 36.25 11.307 35.2767 7.50195 33.53Z" stroke="#515457" stroke-width="3" stroke-linecap="round" stroke-linejoin="round"/>
</svg>
