<svg width="20" height="20" viewBox="0 0 20 20" fill="none" xmlns="http://www.w3.org/2000/svg">
<path d="M10 18.3999C9.75002 18.3999 9.50002 18.3416 9.29169 18.2249C7.73335 17.3749 4.99169 16.4749 3.27502 16.2499L3.03335 16.2166C1.94169 16.0833 1.04169 15.0583 1.04169 13.9499V3.88326C1.04169 3.22492 1.30002 2.62493 1.77502 2.19159C2.25002 1.75826 2.86669 1.54993 3.51669 1.60826C5.35002 1.74993 8.11669 2.66659 9.68335 3.64993L9.88335 3.76659C9.94169 3.79993 10.0667 3.79993 10.1167 3.77493L10.25 3.69159C11.8167 2.70826 14.5834 1.77493 16.425 1.61659C16.4417 1.61659 16.5084 1.61659 16.525 1.61659C17.1334 1.55826 17.7584 1.77493 18.225 2.20826C18.7 2.64159 18.9584 3.24159 18.9584 3.89992V13.9583C18.9584 15.0749 18.0584 16.0916 16.9584 16.2249L16.6834 16.2583C14.9667 16.4833 12.2167 17.3916 10.6917 18.2333C10.4917 18.3499 10.25 18.3999 10 18.3999ZM3.31669 2.84993C3.05002 2.84993 2.80835 2.94159 2.61669 3.11659C2.40835 3.30826 2.29169 3.58326 2.29169 3.88326V13.9499C2.29169 14.4416 2.71669 14.9166 3.19169 14.9833L3.44169 15.0166C5.31669 15.2666 8.19169 16.2083 9.85835 17.1166C9.93335 17.1499 10.0417 17.1583 10.0834 17.1416C11.75 16.2166 14.6417 15.2666 16.525 15.0166L16.8084 14.9833C17.2834 14.9249 17.7084 14.4416 17.7084 13.9499V3.89159C17.7084 3.58326 17.5917 3.31659 17.3834 3.11659C17.1667 2.92493 16.8917 2.83326 16.5834 2.84993C16.5667 2.84993 16.5 2.84993 16.4834 2.84993C14.8917 2.99159 12.325 3.84993 10.925 4.72493L10.7917 4.81659C10.3334 5.09993 9.68335 5.09993 9.24169 4.82493L9.04169 4.70826C7.61669 3.83326 5.05002 2.98326 3.41669 2.84993C3.38335 2.84993 3.35002 2.84993 3.31669 2.84993Z" fill="#8C8E98"/>
<path d="M10 17.7002C9.65833 17.7002 9.375 17.4169 9.375 17.0752V4.5752C9.375 4.23353 9.65833 3.9502 10 3.9502C10.3417 3.9502 10.625 4.23353 10.625 4.5752V17.0752C10.625 17.4252 10.3417 17.7002 10 17.7002Z" fill="#8C8E98"/>
<path d="M6.45831 7.7002H4.58331C4.24165 7.7002 3.95831 7.41686 3.95831 7.0752C3.95831 6.73353 4.24165 6.4502 4.58331 6.4502H6.45831C6.79998 6.4502 7.08331 6.73353 7.08331 7.0752C7.08331 7.41686 6.79998 7.7002 6.45831 7.7002Z" fill="#8C8E98"/>
<path d="M7.08331 10.2002H4.58331C4.24165 10.2002 3.95831 9.91686 3.95831 9.5752C3.95831 9.23353 4.24165 8.9502 4.58331 8.9502H7.08331C7.42498 8.9502 7.70831 9.23353 7.70831 9.5752C7.70831 9.91686 7.42498 10.2002 7.08331 10.2002Z" fill="#8C8E98"/>
</svg>
