<svg width="20" height="20" viewBox="0 0 20 20" fill="none" xmlns="http://www.w3.org/2000/svg">
<path d="M12.7583 12.5165C12.275 12.5165 11.75 12.3582 11.225 12.0332L10.125 11.3665C10.075 11.3332 9.92498 11.3332 9.87498 11.3665L8.77498 12.0332C7.87498 12.5832 6.99165 12.6665 6.28331 12.2665C5.59165 11.8748 5.20831 11.0915 5.20831 10.0665V4.1915C5.20831 2.15817 6.31665 1.0415 8.33331 1.0415H11.6666C13.6833 1.0415 14.7916 2.15817 14.7916 4.1915V10.0665C14.7916 11.0998 14.4083 11.8832 13.7166 12.2665C13.425 12.4332 13.1 12.5165 12.7583 12.5165ZM9.99998 10.0915C10.275 10.0915 10.55 10.1582 10.775 10.2915L11.875 10.9582C12.3666 11.2582 12.8166 11.3332 13.1 11.1748C13.375 11.0165 13.5333 10.6082 13.5333 10.0582V4.1915C13.5333 2.85817 12.975 2.2915 11.6583 2.2915H8.32498C7.00831 2.2915 6.44998 2.85817 6.44998 4.1915V10.0665C6.44998 10.6165 6.60831 11.0248 6.88331 11.1832C7.16665 11.3415 7.61665 11.2665 8.10831 10.9665L9.20831 10.2998C9.44998 10.1582 9.72498 10.0915 9.99998 10.0915Z" fill="#8C8E98"/>
<path d="M12.5 18.9582H7.50002C2.97502 18.9582 1.04169 17.0082 1.04169 12.4415V9.91651C1.04169 6.03318 2.44169 4.06651 5.57502 3.54151C5.90835 3.48318 6.23335 3.71651 6.29169 4.05818C6.35002 4.39984 6.11669 4.71651 5.77502 4.77484C3.26669 5.19151 2.28335 6.63318 2.28335 9.91651V12.4415C2.28335 16.2832 3.69169 17.7082 7.49169 17.7082H12.4917C16.2917 17.7082 17.7 16.2832 17.7 12.4415V9.91651C17.7 6.58318 16.6834 5.14151 14.0667 4.74984C13.725 4.69984 13.4917 4.38318 13.5417 4.04151C13.5917 3.69984 13.9084 3.46651 14.25 3.51651C17.5 3.99984 18.95 5.96651 18.95 9.91651V12.4415C18.9584 17.0082 17.025 18.9582 12.5 18.9582Z" fill="#8C8E98"/>
</svg>
