<svg width="20" height="20" viewBox="0 0 20 20" fill="none" xmlns="http://www.w3.org/2000/svg">
<path d="M10 15.625C9.65833 15.625 9.375 15.3417 9.375 15V12.5C9.375 12.1583 9.65833 11.875 10 11.875C10.3417 11.875 10.625 12.1583 10.625 12.5V15C10.625 15.3417 10.3417 15.625 10 15.625Z" fill="#8C8E98"/>
<path d="M14.6667 18.8H5.33336C3.81669 18.8 2.43336 17.6333 2.18336 16.1417L1.07503 9.50001C0.891695 8.46668 1.40003 7.14168 2.22503 6.48335L8.00003 1.85835C9.1167 0.958348 10.875 0.966681 12 1.86668L17.775 6.48335C18.5917 7.14168 19.0917 8.46668 18.925 9.50001L17.8167 16.1333C17.5667 17.6083 16.15 18.8 14.6667 18.8ZM9.99169 2.44168C9.55003 2.44168 9.10836 2.57501 8.78336 2.83335L3.00836 7.46668C2.54169 7.84168 2.20836 8.70835 2.30836 9.30001L3.41669 15.9333C3.56669 16.8083 4.44169 17.55 5.33336 17.55H14.6667C15.5584 17.55 16.4334 16.8083 16.5834 15.925L17.6917 9.29168C17.7834 8.70835 17.45 7.82501 16.9917 7.45835L11.2167 2.84168C10.8834 2.57501 10.4334 2.44168 9.99169 2.44168Z" fill="#8C8E98"/>
</svg>
